<?xml version="1.0" encoding="utf-8"?>
<!-- Generator: Adobe Illustrator 21.1.0, SVG Export Plug-In . SVG Version: 6.00 Build 0)  -->
<svg version="1.1" id="Layer_1" xmlns="http://www.w3.org/2000/svg" xmlns:xlink="http://www.w3.org/1999/xlink" x="0px" y="0px"
	 viewBox="0 0 576 288" style="enable-background:new 0 0 576 288;" xml:space="preserve">
<style type="text/css">
	.st0{fill:#0033A0;}
	.st1{fill:#FFC627;}
</style>
<g>
	<path class="st0" d="M219.9,93c0-2.3,0-34.3,0-34.3c0-8.2-6.7-14.9-14.9-14.9h-0.7c-6.9,0-13,3-16.8,7.6v-7.8h-1.3
		c0,0-7.7,5.3-22.6,5.3v2.8c0,0,4.2,0,5.7,0c2.6,0,2.4,1.9,2.4,4.5c0,1.2,0,34.5,0,36.8c0,2.3-0.5,3.6-3.6,3.6c-2.3,0-2.7,0-2.8,0
		v1.8h29v-1.8c0,0-0.2,0-3.3,0c-3.1,0-3.6-1.2-3.6-3.6c0-2.3,0-37.9,0-37.9c1.1-3,5-6.1,8.3-6.1c4,0,7.2,2.7,7.2,6.1
		c0,0,0,35.6,0,38c0,2.3-0.5,3.6-3.8,3.6c-1.8,0-2.4,0-2.6,0v1.8h29.7v-1.8c-0.2,0-0.8,0-2.6,0C220.4,96.5,219.9,95.3,219.9,93z"/>
	<path class="st0" d="M273.2,86.6c-3.1,5.3-8.5,8.8-15.7,8.8c-8.8,0-12.7-8.3-12.7-21.5l0-6c0-17.5,4-22.6,9.4-22.6
		c4.6,0,5.5,3.3,5.5,7.3v10.9h15.1c-0.5-13.4-8.6-20-21.9-20c-13.6,0-26.5,8.5-26.5,28.7c0,18.9,13,27.8,26.6,27.8h0.2
		c10.1,0,18-5.2,21.4-12.7L273.2,86.6z"/>
	<path class="st0" d="M327.4,82.7c-2.4,7.4-8.9,12.6-16.8,12.6H310c-7,0-12.7-6.7-12.7-14.9v-16h30l0-1c-0.5-13.4-8.6-20-21.9-20
		c-10.8,0-26.7,7.6-26.7,28.7c0,16.5,13.1,27.8,26.7,27.8h0.2c11.7,0,20.4-7,22.6-16.5L327.4,82.7z M305.9,45.3
		c4.6,0,6.4,3.3,6.4,7.3v9.4h-14.9v-1.4C297.4,48,302.2,45.3,305.9,45.3z"/>
	<g>
		<path class="st0" d="M399.7,76.4c0-13.2-11.5-20.7-26.9-22.6c13.3-1.7,23.1-8.3,23.1-19.7c0-13.4-11.1-20.4-27.8-20.4
			c-0.9,0-1.7,0-2.6,0.1H330v2.4c0,0,3.3,0,6.8,0c3.5,0,4.1,1.6,4.1,4.7c0,0.4,0,2.1,0,4.6c0,15.3,0,66.6,0,67.1
			c0,3.1-0.6,4.7-4.1,4.7c-3.5,0-6.8,0-6.8,0v2.4h39.5v0C387.8,99.2,399.7,91.2,399.7,76.4z M378.1,34.5c0,12.9-3,18.4-19.4,18.7
			c0-11,0-21.8,0-27.7c0-2.5,0-4.2,0-4.6c0-3.1,0.6-4.7,4.1-4.7c2.1,0,4.1,0,5.4,0C375.3,18,378.1,23.1,378.1,34.5z M366.1,97.2
			c-1,0-2.2,0-3.4,0c-3.5,0-4.1-1.6-4.1-4.7c0-0.4,0-2.1,0-4.6c0,0,0-16.7,0-33.4c0.5,0,0.9,0,1.4,0.1c16.3,1,20.4,6.2,20.4,21.3
			C380.5,90,376.1,95.7,366.1,97.2z"/>
		<path class="st0" d="M429.5,96c-3.2,0-3.7-1.5-3.7-4.3c0-2.8,0-79.2,0-79.2h-1.4c0,0-8.1,3.7-23.6,3.7v2.9c0,0,4.4,0,6,0
			c2.8,0,2.6,2,2.6,4.7c0,1.9,0,65,0,67.8c0,2.8-0.5,4.3-3.7,4.3c-3.2,0-4.3,0-4.3,0v2.2h32.6V96C433.9,96,432.7,96,429.5,96z"/>
		<path class="st0" d="M491.5,92.8c-2.6,0-2.4-1.9-2.4-4.5c0-1.3,0-3.4,0-5.1h0c0,0,0-30.5,0-32.9c0-2.3,0.5-3.6,3.6-3.6
			c2.3,0,2.7,0,2.8,0V45H468v1.8c0.3,0,0.8,0,1.7,0c3.1,0,3.6,1.2,3.6,3.6c0,2.3,0,32.9,0,32.9l0,0v5.1c-1.1,3-5,6.2-8.3,6.2
			c-4,0-7.2-2.7-7.2-6.1c0,0,0-35.6,0-38c0-2.3,0.5-3.6,3.8-3.6c0.5,0,0.8,0,1.1,0V45h-28.2v1.8c0.2,0,0.8,0,2.6,0
			c3.3,0,3.8,1.2,3.8,3.6c0,2.3,0,34.3,0,34.3c0,8.2,6.7,14.9,14.9,14.9h0.7c6.9,0,13-3,16.8-7.6v7.4h1.3c0,0,10-3.8,24.9-3.8v-2.8
			C499.5,92.8,493,92.8,491.5,92.8z"/>
		<path class="st0" d="M549.2,82.9c-2.4,7.4-8.9,12.6-16.8,12.6h-0.6c-7,0-12.7-6.7-12.7-14.9v-16h30l0-1c-0.5-13.4-8.6-20-21.9-20
			c-10.8,0-26.7,7.6-26.7,28.7c0,16.5,13.1,27.8,26.7,27.8h0.2c11.7,0,20.4-7,22.6-16.5L549.2,82.9z M527.6,45.4
			c4.6,0,6.4,3.3,6.4,7.3v9.4h-14.9v-1.4C519.1,48.2,523.9,45.4,527.6,45.4z"/>
	</g>
	<path class="st0" d="M163.8,90.6c0,0-3.1,4.2-6.7,4c-2.5-0.2-3-3.5-3-7c0-3.5,0-23.8,0-28c0-10.3-4.3-15.3-17.1-16.8
		c-11.5-1.4-22.7,4.2-22.7,15.6c0,4.2,3,6.9,7,6.9c4.1,0,6.9-2.3,6.9-6.5c0-4.1-3.4-6.3-8.1-5.9l0-0.2c0,0,2.6-7.4,9.8-7.4
		c8.6,0,9.2,5.7,9.2,8.2c0,0.8,0,8,0,15.8c-3.9,0-14.4,0.8-21.5,7c-8.9,7.8-5.6,22.8,7.2,22.8c6.7,0,11.4-4.4,14.5-8.6
		c0.7,4.2,3.9,8.7,9.5,8.7c6.4,0,10.8-1.1,16.2-7.4C164,90.6,163.8,90.6,163.8,90.6z M133,92.8c-4,0-6.1-3.7-6.1-8.4
		c0-4.3,1.2-10.2,12.3-13.4c0,6.9,0,13.8,0,16.8C137.6,90.1,135.3,92.8,133,92.8z"/>
	<g>
		<path class="st1" d="M106.2,69.2c-0.1-0.3-0.2-0.4-0.2-0.4S106.1,69,106.2,69.2z"/>
		<path class="st1" d="M102.4,97.9c-2.1,4.8-7.6,15.6-14.6,29.2c4.6,10.4,9.9,22.2,15.2,34c2.9-5.8,15.8-31.8,15.8-46.3
			c0-16.4-4.9-27.3-7.2-33.1c-2-5-4.7-10.9-5.5-12.5C107,71.2,110.1,80.5,102.4,97.9z"/>
		<path class="st1" d="M67.8,165.2c-18.7,35.3-37.7,70.7-37.7,70.7l11,39l41.9-77L67.8,165.2z"/>
	</g>
	<path class="st1" d="M69.7,65.4c0,0-5.7,9,1.8,29.2c7.5,20.3,63.4,142.3,63.4,142.3l-13.5,38.3l-54-116.3c0,0-14.4-32-13.4-48.4
		c1-16.4,6.6-26.9,9.2-32.5C66,72.3,69.7,65.4,69.7,65.4z"/>
	<path class="st1" d="M86.8,82.9c6.2,0,12,2.2,16.6,5.9c1.2-4,1.8-7.7,1.9-11.1c0.1-4.4-0.8-6.9-1.1-7.6c-0.1-0.2-0.2-0.4-0.2-0.4
		l1.8-0.9c-4.5-6.9-11.3-11.2-19-11.2c-4.7,0-9,1.6-12.7,4.5c-0.7,1.1-3.8,6.4-4,12.2c-0.1,4,0.4,8.5,1.7,13.3
		C76.1,84.7,81.2,82.9,86.8,82.9z"/>
	<path class="st0" d="M53.4,98.6c0.5-2.2,1-4.5,1.7-6.6c-0.8-0.9-1.1-1.7-1.2-2.3c0-0.6,0-1.3,0-2.1c0,0,0-48.7,0-63.2
		c0-0.8,0-1.5,0-2c0.3-1.5,1.8-5.1,10.1-5.1c14.1,0,23.3,10.9,23.3,30.8c0,0.3,0,0.6,0,0.9c0,9.4,0,14.3,0,14.3c0,0.3,0,0.6,0,0.9
		c0,15.1-5.3,25-14.1,28.9c0.1,0.3,0.2,0.6,0.3,0.9c0.4,1,0.8,2.2,1.4,3.6c15.9-3.2,33.1-13.8,33.1-38.3c0-1.1,0-2.1,0-3.1
		c0-1,0-2,0-3.1c0-30-22.7-39.5-37.3-39.5l-6,0h-0.9h-18H25.3v2.4c0,0,3.3,0,6.8,0c3.5,0,4.1,1.6,4.1,4.7c0,0.4,0,1.8,0,3.9
		c0,14.5,0,63.2,0,63.2c0,2.1,0,3.5,0,3.9c0,3.1-0.6,4.7-4.1,4.7c-3.5,0-6.8,0-6.8,0v2.4h20.7l-0.1,0C45.9,98.6,49.4,98.6,53.4,98.6
		z"/>
	<g>
		<path class="st0" d="M152.3,115.2h1.8v14.7c0,3.1,1.3,4.5,4,4.5c2.7,0,4-1.5,4-4.5v-14.7h1.8v14.7c0,4.3-2.1,6.1-5.8,6.1
			c-3.7,0-5.8-1.8-5.8-6.1V115.2z"/>
		<path class="st0" d="M167,120.4h1.5v2.1h0.1c0.9-1.7,2.3-2.5,3.9-2.5c2.3,0,3.9,1.2,3.9,4.1v11.5h-1.7v-11c0-2.1-0.9-3.1-2.6-3.1
			c-2,0-3.3,1.5-3.3,3.9v10.2H167V120.4z"/>
		<path class="st0" d="M179.8,115.2h1.7v2.9h-1.7V115.2z M179.8,120.4h1.7v15.2h-1.7V120.4z"/>
		<path class="st0" d="M183.5,120.4h1.8l3.4,13.2h0.1l3.1-13.2h1.8l-4,15.2h-1.9L183.5,120.4z"/>
		<path class="st0" d="M204.8,130.6c-0.3,3.2-2,5.4-4.9,5.4c-3.2,0-5.1-2.2-5.1-7.9c0-5.3,1.9-7.9,5.2-7.9c3.4,0,4.9,2.3,4.9,7.4
			v0.6h-8.3v0.7c0,4.4,1.5,5.7,3.2,5.7c1.8,0,2.9-1.3,3.2-3.9H204.8z M203.1,126.7c-0.1-3.8-1.1-5.1-3.2-5.1c-2.1,0-3.2,1.4-3.2,5.1
			H203.1z"/>
		<path class="st0" d="M207.7,120.4h1.7v2.4h0.1c0.7-1.7,2.1-2.7,3.8-2.7c0.2,0,0.4,0,0.6,0.1v1.7c-0.3-0.1-0.6-0.1-0.8-0.1
			c-1.9,0-3.7,1.4-3.7,4.3v9.5h-1.7V120.4z"/>
		<path class="st0" d="M218,128.1c-2.1-0.8-2.9-2.1-2.9-3.6c0-3.1,1.9-4.4,4.5-4.4c2.9,0,4.2,1.5,4.2,4.2v0.4h-1.7v-0.4
			c0-2-0.9-2.8-2.5-2.8c-2,0-2.8,1.1-2.8,2.6c0,1.1,0.3,1.9,2.1,2.5l2.5,0.9c2.1,0.8,2.8,2.2,2.8,3.9c0,2.6-1.5,4.5-4.7,4.5
			c-3.1,0-4.7-1.3-4.7-4.7v-0.5h1.7v0.4c0,2.2,1,3.4,2.9,3.4c1.8,0,3-1,3-2.7c0-1.3-0.5-2.2-2.1-2.8L218,128.1z"/>
		<path class="st0" d="M226.8,115.2h1.7v2.9h-1.7V115.2z M226.8,120.4h1.7v15.2h-1.7V120.4z"/>
		<path class="st0" d="M232.6,121.9h-2.1v-1.4h2.1v-4.2h1.7v4.2h2.7v1.4h-2.7v10.9c0,1.2,0.5,1.6,1.6,1.6c0.3,0,0.7-0.1,1.1-0.2v1.4
			c-0.2,0.1-0.6,0.2-1.2,0.2c-2.3,0-3.2-0.6-3.2-2.7V121.9z"/>
		<path class="st0" d="M237.4,120.4h1.8l3.4,13.1h0.1l3.1-13.1h1.8l-4.4,16.4c-0.8,3-1.7,3.8-4,3.8c-0.5,0-0.8,0-1.1-0.1v-1.4
			c0.4,0,0.7,0.1,1.1,0.1c1.1,0,1.8-0.4,2.3-2l0.4-1.4L237.4,120.4z"/>
		<path class="st0" d="M260.7,120.1c3.3,0,5.2,2.7,5.2,7.9c0,5.3-1.9,7.9-5.2,7.9c-3.3,0-5.2-2.7-5.2-7.9
			C255.5,122.8,257.4,120.1,260.7,120.1z M260.7,134.5c1.9,0,3.4-1.7,3.4-6.5c0-4.8-1.5-6.5-3.4-6.5c-1.9,0-3.4,1.7-3.4,6.5
			C257.3,132.9,258.8,134.5,260.7,134.5z"/>
		<path class="st0" d="M269.1,121.9H267v-1.4h2.1v-1.8c0-2.1,0.4-3.7,3.3-3.7c0.5,0,0.8,0,1.1,0.1v1.4c-0.3-0.1-0.5-0.1-0.8-0.1
			c-1.3,0-1.9,0.5-1.9,2.2v1.8h2.7v1.4h-2.7v13.7h-1.7V121.9z"/>
		<path class="st0" d="M282.1,115.2h1.8v10.7h0.1l7.8-10.7h1.9l-6.2,8.5l6.9,11.9h-1.9l-6.1-10.3l-2.4,3.2v7.1h-1.8V115.2z"/>
		<path class="st0" d="M305.2,130.6c-0.3,3.2-2,5.4-4.9,5.4c-3.2,0-5.1-2.2-5.1-7.9c0-5.3,1.9-7.9,5.2-7.9c3.4,0,4.9,2.3,4.9,7.4
			v0.6h-8.3v0.7c0,4.4,1.5,5.7,3.2,5.7c1.8,0,2.9-1.3,3.2-3.9H305.2z M303.6,126.7c-0.1-3.8-1.1-5.1-3.2-5.1c-2.1,0-3.2,1.4-3.2,5.1
			H303.6z"/>
		<path class="st0" d="M308.1,120.4h1.5v2.1h0.1c0.9-1.7,2.3-2.5,3.9-2.5c2.3,0,3.9,1.2,3.9,4.1v11.5h-1.7v-11
			c0-2.1-0.9-3.1-2.6-3.1c-2,0-3.3,1.5-3.3,3.9v10.2h-1.7V120.4z"/>
		<path class="st0" d="M321.4,121.9h-2.1v-1.4h2.1v-4.2h1.7v4.2h2.7v1.4h-2.7v10.9c0,1.2,0.5,1.6,1.6,1.6c0.3,0,0.7-0.1,1.1-0.2v1.4
			c-0.2,0.1-0.6,0.2-1.2,0.2c-2.3,0-3.2-0.6-3.2-2.7V121.9z"/>
		<path class="st0" d="M327.7,120.4h1.7v10.7c0,2.5,0.8,3.4,2.6,3.4c1.9,0,3.3-1.5,3.3-3.9v-10.2h1.7v15.2h-1.5v-2.1h-0.1
			c-0.9,1.7-2.3,2.5-3.9,2.5c-2.3,0-3.9-1.2-3.9-4.1V120.4z"/>
		<path class="st0" d="M349.4,130.6c-0.3,3.2-2,5.4-4.8,5.4c-3.2,0-5.1-2.2-5.1-7.9c0-5.3,1.9-7.9,5.2-7.9c2.9,0,4.5,1.7,4.7,4.9
			h-1.7c-0.2-2.4-1.1-3.4-3-3.4c-1.9,0-3.4,1.1-3.4,6.5c0,5.7,1.6,6.5,3.2,6.5c1.7,0,2.9-1.3,3.1-3.9H349.4z"/>
		<path class="st0" d="M351.8,115.2h1.7V128h0.1l5.9-7.5h2.1l-4.6,5.6l5.4,9.5h-2.1l-4.5-8l-2.3,2.7v5.3h-1.7V115.2z"/>
		<path class="st0" d="M362.1,120.4h1.8l3.4,13.1h0.1l3.1-13.1h1.8l-4.4,16.4c-0.8,3-1.7,3.8-4,3.8c-0.5,0-0.8,0-1.1-0.1v-1.4
			c0.4,0,0.7,0.1,1.1,0.1c1.1,0,1.8-0.4,2.3-2l0.4-1.4L362.1,120.4z"/>
		<path class="st0" d="M381,115.2h4.9c5.9,0,7.4,3.5,7.4,10.2c0,6.7-1.5,10.2-7.4,10.2H381V115.2z M382.8,134.1h3c4,0,5.7-2,5.7-8.6
			c0-6.7-1.7-8.7-5.7-8.7h-3V134.1z"/>
		<path class="st0" d="M396.1,124.9c0-3.1,1.5-4.9,4.7-4.9c3.1,0,4.3,1.6,4.3,4v9c0,0.9,0.3,1.3,0.9,1.3h0.5v1.3
			c-0.3,0.1-0.6,0.2-0.8,0.2c-1.3,0-2.2-0.3-2.2-1.9v-0.5h-0.1c-0.7,2-2.2,2.6-3.9,2.6c-2.7,0-3.9-1.7-3.9-4.3c0-2,0.9-3.6,3.1-4.2
			l3.2-0.9c1.2-0.3,1.5-0.6,1.5-2.4c0-1.9-1.1-2.6-2.6-2.6c-2,0-2.9,1.2-2.9,3.4H396.1z M403.3,127L403.3,127
			c-0.2,0.5-1.2,0.8-1.9,1l-1.4,0.4c-1.7,0.5-2.6,1.3-2.6,3.1c0,1.8,0.9,3,2.4,3c2.1,0,3.5-1.6,3.5-4.3V127z"/>
		<path class="st0" d="M408.5,120.4h1.5v2.1h0.1c0.9-1.7,2.3-2.5,3.9-2.5c2.3,0,3.9,1.2,3.9,4.1v11.5h-1.7v-11
			c0-2.1-0.9-3.1-2.6-3.1c-2,0-3.3,1.5-3.3,3.9v10.2h-1.7V120.4z"/>
		<path class="st0" d="M430.3,130.6c-0.3,3.2-2,5.4-4.8,5.4c-3.2,0-5.1-2.2-5.1-7.9c0-5.3,1.9-7.9,5.2-7.9c2.9,0,4.5,1.7,4.7,4.9
			h-1.7c-0.2-2.4-1.1-3.4-3-3.4c-1.9,0-3.4,1.1-3.4,6.5c0,5.7,1.6,6.5,3.2,6.5c1.7,0,2.9-1.3,3.1-3.9H430.3z"/>
		<path class="st0" d="M442.2,130.6c-0.3,3.2-2,5.4-4.9,5.4c-3.2,0-5.1-2.2-5.1-7.9c0-5.3,1.9-7.9,5.2-7.9c3.4,0,4.9,2.3,4.9,7.4
			v0.6h-8.3v0.7c0,4.4,1.5,5.7,3.2,5.7c1.8,0,2.9-1.3,3.2-3.9H442.2z M440.5,126.7c-0.1-3.8-1.1-5.1-3.2-5.1c-2.1,0-3.2,1.4-3.2,5.1
			H440.5z"/>
		<path class="st0" d="M452,115.2h3.2l4.9,18.1h0.1l4.9-18.1h3v20.4h-1.8v-18.7h-0.1l-5.3,18.7h-1.7l-5.3-18.7h-0.1v18.7H452V115.2z
			"/>
		<path class="st0" d="M471.2,124.9c0-3.1,1.5-4.9,4.7-4.9c3.1,0,4.3,1.6,4.3,4v9c0,0.9,0.3,1.3,0.9,1.3h0.5v1.3
			c-0.3,0.1-0.6,0.2-0.8,0.2c-1.3,0-2.2-0.3-2.2-1.9v-0.5h-0.1c-0.7,2-2.2,2.6-3.9,2.6c-2.7,0-3.9-1.7-3.9-4.3c0-2,0.9-3.6,3.1-4.2
			l3.2-0.9c1.2-0.3,1.5-0.6,1.5-2.4c0-1.9-1.1-2.6-2.6-2.6c-2,0-2.9,1.2-2.9,3.4H471.2z M478.4,127L478.4,127
			c-0.2,0.5-1.2,0.8-1.9,1l-1.4,0.4c-1.7,0.5-2.6,1.3-2.6,3.1c0,1.8,0.9,3,2.4,3c2.1,0,3.5-1.6,3.5-4.3V127z"/>
		<path class="st0" d="M483.7,120.4h1.7v2.4h0.1c0.7-1.7,2.1-2.7,3.8-2.7c0.2,0,0.4,0,0.6,0.1v1.7c-0.3-0.1-0.6-0.1-0.8-0.1
			c-1.9,0-3.7,1.4-3.7,4.3v9.5h-1.7V120.4z"/>
		<path class="st0" d="M491.3,124.9c0-3.1,1.5-4.9,4.7-4.9c3.1,0,4.3,1.6,4.3,4v9c0,0.9,0.3,1.3,0.9,1.3h0.5v1.3
			c-0.3,0.1-0.6,0.2-0.8,0.2c-1.3,0-2.2-0.3-2.2-1.9v-0.5h-0.1c-0.7,2-2.2,2.6-3.9,2.6c-2.7,0-3.9-1.7-3.9-4.3c0-2,0.9-3.6,3.1-4.2
			l3.2-0.9c1.2-0.3,1.5-0.6,1.5-2.4c0-1.9-1.1-2.6-2.6-2.6c-2,0-2.9,1.2-2.9,3.4H491.3z M498.5,127L498.5,127
			c-0.2,0.5-1.2,0.8-1.9,1l-1.4,0.4c-1.7,0.5-2.6,1.3-2.6,3.1c0,1.8,0.9,3,2.4,3c2.1,0,3.5-1.6,3.5-4.3V127z"/>
		<path class="st0" d="M504.5,121.9h-2.1v-1.4h2.1v-4.2h1.7v4.2h2.7v1.4h-2.7v10.9c0,1.2,0.5,1.6,1.6,1.6c0.3,0,0.7-0.1,1.1-0.2v1.4
			c-0.2,0.1-0.6,0.2-1.2,0.2c-2.3,0-3.2-0.6-3.2-2.7V121.9z"/>
		<path class="st0" d="M510.8,115.2h1.7v7.3h0.1c0.4-1.5,1.9-2.5,3.7-2.5c2.3,0,3.9,1.2,3.9,4.1v11.5h-1.7v-11
			c0-2.1-0.9-3.1-2.6-3.1c-2,0-3.3,1.5-3.3,3.9v10.2h-1.7V115.2z"/>
		<path class="st0" d="M527.9,120.1c3.3,0,5.2,2.7,5.2,7.9c0,5.3-1.9,7.9-5.2,7.9c-3.3,0-5.2-2.7-5.2-7.9
			C522.7,122.8,524.5,120.1,527.9,120.1z M527.9,134.5c1.9,0,3.4-1.7,3.4-6.5c0-4.8-1.5-6.5-3.4-6.5c-1.9,0-3.4,1.7-3.4,6.5
			C524.5,132.9,526,134.5,527.9,134.5z"/>
		<path class="st0" d="M535.6,120.4h1.5v2.1h0.1c0.9-1.7,2.3-2.5,3.9-2.5c2.3,0,3.9,1.2,3.9,4.1v11.5h-1.7v-11
			c0-2.1-0.9-3.1-2.6-3.1c-2,0-3.3,1.5-3.3,3.9v10.2h-1.7V120.4z"/>
	</g>
</g>
</svg>
