<?xml version="1.0" encoding="utf-8"?>
<!-- Generator: Adobe Illustrator 21.1.0, SVG Export Plug-In . SVG Version: 6.00 Build 0)  -->
<svg version="1.1" id="Layer_1" xmlns="http://www.w3.org/2000/svg" xmlns:xlink="http://www.w3.org/1999/xlink" x="0px" y="0px"
	 viewBox="0 0 288 288" style="enable-background:new 0 0 288 288;" xml:space="preserve">
<style type="text/css">
	.st0{fill:#0033A0;}
	.st1{fill:#FFC627;}
</style>
<g>
	<path class="st0" d="M49.4,259.5h0.9v7.2c0,1.5,0.6,2.2,2,2.2c1.3,0,2-0.7,2-2.2v-7.2h0.9v7.2c0,2.1-1,3-2.8,3
		c-1.8,0-2.8-0.9-2.8-3V259.5z"/>
	<path class="st0" d="M56.6,262.1h0.8v1h0c0.4-0.8,1.1-1.2,1.9-1.2c1.1,0,1.9,0.6,1.9,2v5.6h-0.8v-5.4c0-1-0.4-1.5-1.3-1.5
		c-1,0-1.6,0.8-1.6,1.9v5h-0.8V262.1z"/>
	<path class="st0" d="M62.8,259.5h0.8v1.4h-0.8V259.5z M62.8,262.1h0.8v7.4h-0.8V262.1z"/>
	<path class="st0" d="M64.6,262.1h0.9l1.6,6.5h0l1.5-6.5h0.9l-2,7.4h-0.9L64.6,262.1z"/>
	<path class="st0" d="M75,267c-0.1,1.6-1,2.6-2.4,2.6c-1.6,0-2.5-1.1-2.5-3.9c0-2.6,0.9-3.9,2.6-3.9c1.6,0,2.4,1.1,2.4,3.6v0.3h-4
		v0.3c0,2.1,0.8,2.8,1.6,2.8c0.9,0,1.4-0.6,1.6-1.9H75z M74.2,265.1c0-1.8-0.5-2.5-1.6-2.5c-1,0-1.5,0.7-1.6,2.5H74.2z"/>
	<path class="st0" d="M76.4,262.1h0.8v1.2h0c0.3-0.8,1-1.3,1.9-1.3c0.1,0,0.2,0,0.3,0v0.8c-0.1,0-0.3,0-0.4,0
		c-0.9,0-1.8,0.7-1.8,2.1v4.6h-0.8V262.1z"/>
	<path class="st0" d="M81.5,265.8c-1-0.4-1.4-1-1.4-1.8c0-1.5,0.9-2.1,2.2-2.1c1.4,0,2,0.7,2,2.1v0.2h-0.8V264c0-1-0.4-1.4-1.2-1.4
		c-1,0-1.4,0.5-1.4,1.3c0,0.5,0.2,0.9,1,1.2l1.2,0.5c1,0.4,1.4,1.1,1.4,1.9c0,1.3-0.7,2.2-2.3,2.2c-1.5,0-2.3-0.6-2.3-2.3v-0.2h0.8
		v0.2c0,1.1,0.5,1.6,1.4,1.6c0.9,0,1.5-0.5,1.5-1.3c0-0.7-0.3-1.1-1-1.4L81.5,265.8z"/>
	<path class="st0" d="M85.8,259.5h0.8v1.4h-0.8V259.5z M85.8,262.1h0.8v7.4h-0.8V262.1z"/>
	<path class="st0" d="M88.6,262.8h-1v-0.7h1v-2h0.8v2h1.3v0.7h-1.3v5.3c0,0.6,0.3,0.8,0.8,0.8c0.2,0,0.3,0,0.5-0.1v0.7
		c-0.1,0.1-0.3,0.1-0.6,0.1c-1.1,0-1.6-0.3-1.6-1.3V262.8z"/>
	<path class="st0" d="M90.9,262.1h0.9l1.7,6.4h0l1.5-6.4h0.9l-2.2,8c-0.4,1.5-0.8,1.9-2,1.9c-0.2,0-0.4,0-0.6,0v-0.7
		c0.2,0,0.4,0,0.5,0c0.5,0,0.9-0.2,1.1-1l0.2-0.7L90.9,262.1z"/>
	<path class="st0" d="M102.3,261.9c1.6,0,2.6,1.3,2.6,3.9c0,2.6-0.9,3.9-2.6,3.9c-1.6,0-2.6-1.3-2.6-3.9
		C99.8,263.2,100.7,261.9,102.3,261.9z M102.3,268.9c0.9,0,1.7-0.8,1.7-3.2c0-2.4-0.7-3.2-1.7-3.2c-0.9,0-1.7,0.8-1.7,3.2
		C100.7,268.1,101.4,268.9,102.3,268.9z"/>
	<path class="st0" d="M106.4,262.8h-1v-0.7h1v-0.9c0-1,0.2-1.8,1.6-1.8c0.3,0,0.4,0,0.5,0v0.7c-0.1,0-0.3,0-0.4,0
		c-0.6,0-0.9,0.2-0.9,1.1v0.9h1.3v0.7h-1.3v6.7h-0.8V262.8z"/>
	<path class="st0" d="M112.8,259.5h0.9v5.2h0l3.8-5.2h1l-3,4.2l3.4,5.8h-1l-3-5.1l-1.2,1.6v3.5h-0.9V259.5z"/>
	<path class="st0" d="M124,267c-0.1,1.6-1,2.6-2.4,2.6c-1.6,0-2.5-1.1-2.5-3.9c0-2.6,0.9-3.9,2.6-3.9c1.6,0,2.4,1.1,2.4,3.6v0.3h-4
		v0.3c0,2.1,0.8,2.8,1.6,2.8c0.9,0,1.4-0.6,1.6-1.9H124z M123.2,265.1c0-1.8-0.5-2.5-1.6-2.5c-1,0-1.5,0.7-1.6,2.5H123.2z"/>
	<path class="st0" d="M125.4,262.1h0.8v1h0c0.4-0.8,1.1-1.2,1.9-1.2c1.1,0,1.9,0.6,1.9,2v5.6h-0.8v-5.4c0-1-0.4-1.5-1.3-1.5
		c-1,0-1.6,0.8-1.6,1.9v5h-0.8V262.1z"/>
	<path class="st0" d="M131.9,262.8h-1v-0.7h1v-2h0.8v2h1.3v0.7h-1.3v5.3c0,0.6,0.3,0.8,0.8,0.8c0.2,0,0.3,0,0.5-0.1v0.7
		c-0.1,0.1-0.3,0.1-0.6,0.1c-1.1,0-1.6-0.3-1.6-1.3V262.8z"/>
	<path class="st0" d="M135,262.1h0.8v5.2c0,1.2,0.4,1.7,1.3,1.7c0.9,0,1.6-0.8,1.6-1.9v-5h0.8v7.4h-0.8v-1h0
		c-0.4,0.8-1.1,1.2-1.9,1.2c-1.1,0-1.9-0.6-1.9-2V262.1z"/>
	<path class="st0" d="M145.6,267c-0.1,1.6-1,2.6-2.4,2.6c-1.6,0-2.5-1.1-2.5-3.9c0-2.6,0.9-3.9,2.6-3.9c1.4,0,2.2,0.9,2.3,2.4h-0.8
		c-0.1-1.2-0.6-1.7-1.5-1.7c-0.9,0-1.7,0.6-1.7,3.2c0,2.8,0.8,3.2,1.6,3.2c0.8,0,1.4-0.6,1.5-1.9H145.6z"/>
	<path class="st0" d="M146.8,259.5h0.8v6.2h0l2.9-3.7h1l-2.2,2.8l2.6,4.7h-1l-2.2-3.9l-1.1,1.3v2.6h-0.8V259.5z"/>
	<path class="st0" d="M151.8,262.1h0.9l1.7,6.4h0l1.5-6.4h0.9l-2.2,8c-0.4,1.5-0.8,1.9-2,1.9c-0.2,0-0.4,0-0.6,0v-0.7
		c0.2,0,0.4,0,0.5,0c0.5,0,0.9-0.2,1.1-1l0.2-0.7L151.8,262.1z"/>
	<path class="st0" d="M161,259.5h2.4c2.9,0,3.6,1.7,3.6,5c0,3.2-0.7,5-3.6,5H161V259.5z M161.9,268.7h1.5c2,0,2.8-1,2.8-4.2
		c0-3.3-0.8-4.2-2.8-4.2h-1.5V268.7z"/>
	<path class="st0" d="M168.4,264.3c0-1.5,0.7-2.4,2.3-2.4c1.5,0,2.1,0.8,2.1,2v4.4c0,0.4,0.1,0.6,0.4,0.6h0.2v0.6
		c-0.2,0.1-0.3,0.1-0.4,0.1c-0.7,0-1.1-0.1-1.1-0.9v-0.3h0c-0.3,1-1.1,1.3-1.9,1.3c-1.3,0-1.9-0.8-1.9-2.1c0-1,0.4-1.8,1.5-2.1
		l1.6-0.4c0.6-0.2,0.7-0.3,0.7-1.2c0-0.9-0.5-1.3-1.3-1.3c-1,0-1.4,0.6-1.4,1.7H168.4z M171.9,265.3L171.9,265.3
		c-0.1,0.3-0.6,0.4-0.9,0.5l-0.7,0.2c-0.8,0.2-1.3,0.7-1.3,1.5c0,0.9,0.4,1.5,1.2,1.5c1,0,1.7-0.8,1.7-2.1V265.3z"/>
	<path class="st0" d="M174.5,262.1h0.8v1h0c0.4-0.8,1.1-1.2,1.9-1.2c1.1,0,1.9,0.6,1.9,2v5.6h-0.8v-5.4c0-1-0.4-1.5-1.3-1.5
		c-1,0-1.6,0.8-1.6,1.9v5h-0.8V262.1z"/>
	<path class="st0" d="M185.1,267c-0.1,1.6-1,2.6-2.4,2.6c-1.6,0-2.5-1.1-2.5-3.9c0-2.6,0.9-3.9,2.6-3.9c1.4,0,2.2,0.9,2.3,2.4h-0.8
		c-0.1-1.2-0.6-1.7-1.5-1.7c-0.9,0-1.7,0.6-1.7,3.2c0,2.8,0.8,3.2,1.6,3.2c0.9,0,1.4-0.6,1.5-1.9H185.1z"/>
	<path class="st0" d="M190.9,267c-0.1,1.6-1,2.6-2.4,2.6c-1.6,0-2.5-1.1-2.5-3.9c0-2.6,0.9-3.9,2.6-3.9c1.6,0,2.4,1.1,2.4,3.6v0.3
		h-4v0.3c0,2.1,0.8,2.8,1.6,2.8c0.9,0,1.4-0.6,1.6-1.9H190.9z M190.1,265.1c0-1.8-0.5-2.5-1.6-2.5c-1,0-1.5,0.7-1.6,2.5H190.1z"/>
	<path class="st0" d="M195.7,259.5h1.5l2.4,8.8h0l2.4-8.8h1.5v10h-0.9v-9.1h0l-2.6,9.1h-0.8l-2.6-9.1h0v9.1h-0.9V259.5z"/>
	<path class="st0" d="M205,264.3c0-1.5,0.7-2.4,2.3-2.4c1.5,0,2.1,0.8,2.1,2v4.4c0,0.4,0.1,0.6,0.4,0.6h0.2v0.6
		c-0.2,0.1-0.3,0.1-0.4,0.1c-0.7,0-1.1-0.1-1.1-0.9v-0.3h0c-0.3,1-1.1,1.3-1.9,1.3c-1.3,0-1.9-0.8-1.9-2.1c0-1,0.4-1.8,1.5-2.1
		l1.6-0.4c0.6-0.2,0.7-0.3,0.7-1.2c0-0.9-0.5-1.3-1.3-1.3c-1,0-1.4,0.6-1.4,1.7H205z M208.6,265.3L208.6,265.3
		c-0.1,0.3-0.6,0.4-0.9,0.5l-0.7,0.2c-0.8,0.2-1.3,0.7-1.3,1.5c0,0.9,0.5,1.5,1.2,1.5c1,0,1.7-0.8,1.7-2.1V265.3z"/>
	<path class="st0" d="M211.1,262.1h0.8v1.2h0c0.3-0.8,1-1.3,1.9-1.3c0.1,0,0.2,0,0.3,0v0.8c-0.1,0-0.3,0-0.4,0
		c-0.9,0-1.8,0.7-1.8,2.1v4.6h-0.8V262.1z"/>
	<path class="st0" d="M214.8,264.3c0-1.5,0.7-2.4,2.3-2.4c1.5,0,2.1,0.8,2.1,2v4.4c0,0.4,0.1,0.6,0.4,0.6h0.2v0.6
		c-0.2,0.1-0.3,0.1-0.4,0.1c-0.7,0-1.1-0.1-1.1-0.9v-0.3h0c-0.3,1-1.1,1.3-1.9,1.3c-1.3,0-1.9-0.8-1.9-2.1c0-1,0.4-1.8,1.5-2.1
		l1.6-0.4c0.6-0.2,0.7-0.3,0.7-1.2c0-0.9-0.5-1.3-1.3-1.3c-1,0-1.4,0.6-1.4,1.7H214.8z M218.4,265.3L218.4,265.3
		c-0.1,0.3-0.6,0.4-0.9,0.5l-0.7,0.2c-0.8,0.2-1.3,0.7-1.3,1.5c0,0.9,0.4,1.5,1.2,1.5c1,0,1.7-0.8,1.7-2.1V265.3z"/>
	<path class="st0" d="M221.3,262.8h-1v-0.7h1v-2h0.8v2h1.3v0.7h-1.3v5.3c0,0.6,0.3,0.8,0.8,0.8c0.2,0,0.3,0,0.5-0.1v0.7
		c-0.1,0.1-0.3,0.1-0.6,0.1c-1.1,0-1.6-0.3-1.6-1.3V262.8z"/>
	<path class="st0" d="M224.3,259.5h0.8v3.6h0c0.2-0.8,0.9-1.2,1.8-1.2c1.1,0,1.9,0.6,1.9,2v5.6h-0.8v-5.4c0-1-0.4-1.5-1.3-1.5
		c-1,0-1.6,0.8-1.6,1.9v5h-0.8V259.5z"/>
	<path class="st0" d="M232.7,261.9c1.6,0,2.6,1.3,2.6,3.9c0,2.6-0.9,3.9-2.6,3.9c-1.6,0-2.6-1.3-2.6-3.9
		C230.1,263.2,231.1,261.9,232.7,261.9z M232.7,268.9c0.9,0,1.7-0.8,1.7-3.2c0-2.4-0.7-3.2-1.7-3.2c-0.9,0-1.7,0.8-1.7,3.2
		C231,268.1,231.8,268.9,232.7,268.9z"/>
	<path class="st0" d="M236.5,262.1h0.8v1h0c0.4-0.8,1.1-1.2,1.9-1.2c1.1,0,1.9,0.6,1.9,2v5.6h-0.8v-5.4c0-1-0.4-1.5-1.3-1.5
		c-1,0-1.6,0.8-1.6,1.9v5h-0.8V262.1z"/>
</g>
<path class="st0" d="M239.8,182c0-16.4-14.3-25.8-33.4-28.1c16.5-2.1,28.8-10.3,28.8-24.6c0-16.6-13.8-25.4-34.6-25.4
	c-1.1,0-2.1,0-3.2,0.1h-44.3v3c0,0,4.1,0,8.5,0c4.4,0,5.1,2,5.1,5.8c0,0.5,0,2.6,0,5.7c0,19,0,82.9,0,83.5c0,3.8-0.7,5.8-5.1,5.8
	c-4.4,0-8.5,0-8.5,0v3h49.2v0C224.9,210.4,239.8,200.4,239.8,182z M212.9,129.8c0,16.1-3.8,22.9-24.1,23.3c0-13.7,0-27.1,0-34.5
	c0-3.1,0-5.2,0-5.7c0-3.8,0.7-5.8,5-5.8c2.6,0,5.1,0,6.7,0C209.5,109.2,212.9,115.6,212.9,129.8z M198,207.9c-1.3,0-2.7,0-4.2,0
	c-4.4,0-5-2-5-5.8c0-0.5,0-2.6,0-5.7c0,0,0-20.7,0-41.5c0.6,0,1.1,0.1,1.7,0.1c20.3,1.3,25.4,7.7,25.4,26.5
	C215.8,198.8,210.3,206,198,207.9z"/>
<g>
	<path class="st1" d="M113.8,25.6c-0.1-0.2-0.2-0.4-0.2-0.4S113.7,25.4,113.8,25.6z"/>
	<path class="st1" d="M111.8,51.6c-1.7,4.5-6.1,14.5-11.7,27c4.7,9.2,10,19.5,15.4,29.9c2.4-5.3,12.7-29.5,12-42.6
		c-0.8-14.8-5.7-24.4-8.1-29.5c-2-4.4-4.8-9.6-5.5-11C114.6,27.3,117.9,35.6,111.8,51.6z"/>
	<path class="st1" d="M83.9,114.1c-15.1,32.8-30.5,65.6-30.5,65.6l11.9,34.7l34-71.5L83.9,114.1z"/>
	<path class="st1" d="M83.9,114.1c-15.1,32.8-30.5,65.6-30.5,65.6l11.9,34.7l34-71.5L83.9,114.1z"/>
</g>
<path class="st1" d="M80.7,23.9c0,0-4.7,8.4,3,26.3C91.4,68.1,148,175.4,148,175.4l-10.3,35.2L83.2,108.3c0,0-14.6-28.2-14.5-43
	c0.1-14.8,4.6-24.6,6.7-29.8C77.6,30.3,80.7,23.9,80.7,23.9z"/>
<path class="st1" d="M96.9,38.9c5.6-0.3,10.9,1.4,15.3,4.5c0.9-3.6,1.3-7,1.1-10.1c-0.1-3.9-1.5-7.1-1.5-7.1s-2.5-5.5-5-7.1
	c-3.4-2.1-7.2-3.2-11.1-3c-4.2,0.2-8.1,1.9-11.3,4.7c-0.6,1-3.1,5.9-3,11.2c0.1,3.6,0.8,7.6,2.2,12C87.4,41,91.9,39.2,96.9,38.9z"/>
<g>
	<path class="st0" d="M86.4,119.2c0,1.1,0,1.7,0,1.7c0,2.6,0,4.3,0,4.8c0,3.8-0.7,5.8-5,5.8c-4.4,0-8.5,0-8.5,0v3h21.7L86.4,119.2z"
		/>
	<path class="st0" d="M176,77.7c0-37.4-28.3-49.1-46.4-49.1l-7.5,0H121H98.5H72.9v3c0,0,4.1,0,8.5,0c4.4,0,5,2,5,5.8
		c0,0.5,0,2.2,0,4.8c0,2.2,0,5.1,0,8.4c2.2,4.9,14.7,30.2,22.2,44.7c0-4.5,0-50.2,0-53c0-1,0-1.8,0-2.5c0.4-1.8,2.3-6.4,12.5-6.4
		c17.5,0,29,13.6,29,38.3c0,0.4,0,0.7,0,1.1c0,11.7,0,17.8,0,17.8c0,0.4,0,0.7,0,1.1c0,17.4-5.7,29.3-15.2,34.8h0
		c-2.5,1.4-5.5,2.4-8.6,2.9c0.9,1.8,1.8,3.5,2.7,5.2l0.5,0c2.6,0,13.6-2.7,20.4-6.2c14.2-6.9,26.1-20,26.1-42.7c0-1.4,0-2.7-0.1-3.9
		C176,80.4,176,79.1,176,77.7z"/>
</g>
<g>
	<path class="st0" d="M79.1,238.4c0-11-8.2-14.4-13.5-14.4l-2.2,0h-0.3h-6.5h-7.5v0.9c0,0,1.2,0,2.5,0c1.3,0,1.5,0.6,1.5,1.7
		c0,0.1,0,0.6,0,1.4c0,5.3,0,23,0,23c0,0.8,0,1.3,0,1.4c0,1.1-0.2,1.7-1.5,1.7c-1.3,0-2.5,0-2.5,0v0.9h7.5l0,0c0,0,1.3,0,2.7,0v0
		h2.8l1.3,0l2.2,0c0.7,0,4-0.8,5.9-1.8c4.1-2,7.6-5.8,7.6-12.5c0-0.4,0-0.8,0-1.1C79.1,239.2,79.1,238.8,79.1,238.4z M63.1,253.6
		c-1.9,0-2.9-0.6-3.3-1.1c-0.2-0.3-0.3-0.5-0.3-0.7c0-0.2,0-0.5,0-0.7c0,0,0-17.8,0-23c0-0.3,0-0.5,0-0.7c0.1-0.5,0.7-1.9,3.6-1.9
		c5.1,0,8.4,4,8.4,11.2c0,0.1,0,0.2,0,0.3c0,3.4,0,5.2,0,5.2c0,0.1,0,0.2,0,0.3c0,5.1-1.7,8.6-4.4,10.2l0,0
		C66,253.3,64.6,253.6,63.1,253.6z"/>
	<path class="st0" d="M120.1,253c0-0.8,0-12.5,0-12.5c0-3-2.4-5.4-5.4-5.4h-0.3c-2.5,0-4.7,1.1-6.1,2.8v-2.9h-0.5
		c0,0-2.8,1.9-8.2,1.9v1c0,0,1.5,0,2.1,0c1,0,0.9,0.7,0.9,1.6c0,0.4,0,12.6,0,13.4c0,0.8-0.2,1.3-1.3,1.3c-0.8,0-1,0-1,0v0.7h10.6
		v-0.7c0,0-0.1,0-1.2,0c-1.1,0-1.3-0.5-1.3-1.3c0-0.8,0-13.8,0-13.8c0.4-1.1,1.8-2.2,3-2.2c1.4,0,2.6,1,2.6,2.2c0,0,0,13,0,13.8
		c0,0.8-0.2,1.3-1.4,1.3c-0.6,0-0.9,0-0.9,0v0.7h10.8v-0.7c-0.1,0-0.3,0-0.9,0C120.3,254.3,120.1,253.8,120.1,253z"/>
	<path class="st0" d="M139.5,250.6c-1.1,1.9-3.1,3.2-5.7,3.2c-3.2,0-4.6-3-4.6-7.8l0-2.2c0-6.4,1.5-8.3,3.4-8.3c1.7,0,2,1.2,2,2.7v4
		h5.5c-0.2-4.9-3.2-7.3-8-7.3c-5,0-9.7,3.1-9.7,10.5c0,6.9,4.8,10.2,9.7,10.2h0.1c3.7,0,6.6-1.9,7.8-4.6L139.5,250.6z"/>
	<path class="st0" d="M159.3,249.2c-0.9,2.7-3.3,4.6-6.1,4.6H153c-2.6,0-4.6-2.4-4.6-5.4v-5.9h11l0-0.4c-0.2-4.9-3.2-7.3-8-7.3
		c-4,0-9.7,2.8-9.7,10.5c0,6,4.8,10.2,9.7,10.2h0.1c4.3,0,7.5-2.6,8.3-6L159.3,249.2z M151.5,235.6c1.7,0,2.3,1.2,2.3,2.7v3.4h-5.4
		v-0.5C148.4,236.6,150.1,235.6,151.5,235.6z"/>
	<path class="st0" d="M186.2,246.9c0-4.8-4.2-7.6-9.8-8.2c4.8-0.6,8.4-3,8.4-7.2c0-4.9-4-7.4-10.1-7.4c-0.3,0-0.6,0-0.9,0h-13v0.9
		c0,0,1.2,0,2.5,0c1.3,0,1.5,0.6,1.5,1.7c0,0.2,0,0.8,0,1.7c0,5.6,0,24.3,0,24.5c0,1.1-0.2,1.7-1.5,1.7c-1.3,0-2.5,0-2.5,0v0.9h14.4
		v0C181.9,255.2,186.2,252.3,186.2,246.9z M178.3,231.6c0,4.7-1.1,6.7-7.1,6.8c0-4,0-7.9,0-10.1c0-0.9,0-1.5,0-1.7
		c0-1.1,0.2-1.7,1.5-1.7c0.8,0,1.5,0,2,0C177.3,225.6,178.3,227.5,178.3,231.6z M174,254.5c-0.4,0-0.8,0-1.2,0
		c-1.3,0-1.5-0.6-1.5-1.7c0-0.2,0-0.8,0-1.7c0,0,0-6.1,0-12.2c0.2,0,0.3,0,0.5,0c6,0.4,7.4,2.3,7.4,7.8
		C179.2,251.9,177.6,254,174,254.5z"/>
	<path class="st0" d="M197.1,254.1c-1.2,0-1.4-0.5-1.4-1.6c0-1,0-28.9,0-28.9h-0.5c0,0-2.9,1.4-8.6,1.4v1.1c0,0,1.6,0,2.2,0
		c1,0,0.9,0.7,0.9,1.7c0,0.7,0,23.7,0,24.7c0,1-0.2,1.6-1.4,1.6c-1.2,0-1.6,0-1.6,0v0.8h11.9v-0.8
		C198.7,254.1,198.3,254.1,197.1,254.1z"/>
	<path class="st0" d="M219.7,252.9c-1,0-0.9-0.7-0.9-1.6c0-0.5,0-1.2,0-1.9l0,0c0,0,0-11.1,0-12c0-0.8,0.2-1.3,1.3-1.3
		c0.8,0,1,0,1,0v-0.7h-10v0.7c0.1,0,0.3,0,0.6,0c1.1,0,1.3,0.5,1.3,1.3c0,0.8,0,12,0,12l0,0v1.9c-0.4,1.1-1.8,2.2-3,2.2
		c-1.5,0-2.6-1-2.6-2.2c0,0,0-13,0-13.9c0-0.8,0.2-1.3,1.4-1.3c0.2,0,0.3,0,0.4,0v-0.7h-10.3v0.7c0.1,0,0.3,0,0.9,0
		c1.2,0,1.4,0.5,1.4,1.3c0,0.8,0,12.5,0,12.5c0,3,2.4,5.4,5.4,5.4h0.3c2.5,0,4.7-1.1,6.1-2.8v2.7h0.5c0,0,3.7-1.4,9.1-1.4v-1
		C222.7,252.9,220.3,252.9,219.7,252.9z"/>
	<path class="st0" d="M240.8,249.3c-0.9,2.7-3.3,4.6-6.1,4.6h-0.2c-2.6,0-4.6-2.4-4.6-5.4v-5.9h11l0-0.4c-0.2-4.9-3.2-7.3-8-7.3
		c-4,0-9.7,2.8-9.7,10.5c0,6,4.8,10.2,9.8,10.2h0.1c4.3,0,7.5-2.6,8.3-6L240.8,249.3z M232.9,235.6c1.7,0,2.3,1.2,2.3,2.7v3.4h-5.4
		v-0.5C229.8,236.6,231.5,235.6,232.9,235.6z"/>
	<path class="st0" d="M99.6,252.1c0,0-1.1,1.5-2.4,1.4c-0.9-0.1-1.1-1.3-1.1-2.6c0-1.3,0-8.7,0-10.2c0-3.8-1.6-5.6-6.2-6.1
		c-4.2-0.5-8.3,1.5-8.3,5.7c0,1.5,1.1,2.5,2.6,2.5c1.5,0,2.5-0.8,2.5-2.4c0-1.5-1.2-2.3-3-2.1l0-0.1c0,0,1-2.7,3.6-2.7
		c3.1,0,3.4,2.1,3.4,3c0,0.3,0,2.9,0,5.8c-1.4,0-5.3,0.3-7.9,2.6c-3.2,2.9-2.1,8.3,2.6,8.3c2.4,0,4.2-1.6,5.3-3.1
		c0.3,1.5,1.4,3.2,3.4,3.2c2.4,0,3.9-0.4,5.9-2.7C99.7,252.1,99.6,252.1,99.6,252.1z M88.4,252.9c-1.4,0-2.2-1.4-2.2-3.1
		c0-1.6,0.4-3.7,4.5-4.9c0,2.5,0,5,0,6.1C90.1,251.9,89.2,252.9,88.4,252.9z"/>
</g>
</svg>
