<?xml version="1.0" encoding="utf-8"?>
<!-- Generator: Adobe Illustrator 21.1.0, SVG Export Plug-In . SVG Version: 6.00 Build 0)  -->
<svg version="1.1" id="Layer_1" xmlns="http://www.w3.org/2000/svg" xmlns:xlink="http://www.w3.org/1999/xlink" x="0px" y="0px"
	 viewBox="0 0 432 360" style="enable-background:new 0 0 432 360;" xml:space="preserve">
<style type="text/css">
	.st0{fill:#0033A0;}
	.st1{fill:#FFC627;}
</style>
<g>
	<g>
		<path class="st0" d="M174.1,263h1.8v14.6c0,3,1.3,4.5,4,4.5c2.7,0,4-1.5,4-4.5V263h1.8v14.6c0,4.3-2.1,6-5.8,6
			c-3.7,0-5.8-1.8-5.8-6V263z"/>
		<path class="st0" d="M188.7,268.2h1.5v2.1h0.1c0.9-1.7,2.3-2.4,3.9-2.4c2.3,0,3.9,1.2,3.9,4v11.4h-1.7v-10.9
			c0-2.1-0.9-3.1-2.6-3.1c-2,0-3.3,1.5-3.3,3.9v10.1h-1.7V268.2z"/>
		<path class="st0" d="M201.4,263h1.7v2.9h-1.7V263z M201.4,268.2h1.7v15.1h-1.7V268.2z"/>
		<path class="st0" d="M205.1,268.2h1.8l3.4,13.1h0.1l3.1-13.1h1.8l-4,15.1h-1.9L205.1,268.2z"/>
		<path class="st0" d="M226.3,278.3c-0.3,3.2-2,5.3-4.9,5.3c-3.2,0-5.1-2.2-5.1-7.9c0-5.2,1.9-7.9,5.2-7.9c3.3,0,4.9,2.3,4.9,7.3
			v0.6h-8.2v0.7c0,4.3,1.5,5.7,3.2,5.7c1.8,0,2.9-1.3,3.2-3.9H226.3z M224.6,274.4c-0.1-3.7-1.1-5.1-3.2-5.1c-2.1,0-3.2,1.4-3.2,5.1
			H224.6z"/>
		<path class="st0" d="M229.1,268.2h1.7v2.4h0.1c0.7-1.7,2-2.7,3.8-2.7c0.2,0,0.4,0,0.6,0.1v1.7c-0.3-0.1-0.6-0.1-0.8-0.1
			c-1.9,0-3.6,1.4-3.6,4.3v9.4h-1.7V268.2z"/>
		<path class="st0" d="M239.4,275.8c-2.1-0.8-2.9-2.1-2.9-3.6c0-3.1,1.9-4.3,4.5-4.3c2.8,0,4.1,1.5,4.1,4.2v0.4h-1.7v-0.4
			c0-2-0.9-2.8-2.5-2.8c-2,0-2.8,1-2.8,2.6c0,1.1,0.3,1.9,2,2.5l2.5,0.9c2,0.8,2.8,2.2,2.8,3.8c0,2.6-1.5,4.5-4.7,4.5
			c-3.1,0-4.6-1.3-4.6-4.7v-0.5h1.7v0.4c0,2.2,1,3.4,2.9,3.4c1.8,0,3-1,3-2.7c0-1.3-0.5-2.2-2-2.8L239.4,275.8z"/>
		<path class="st0" d="M248.2,263h1.7v2.9h-1.7V263z M248.2,268.2h1.7v15.1h-1.7V268.2z"/>
		<path class="st0" d="M253.9,269.7h-2.1v-1.4h2.1v-4.2h1.7v4.2h2.7v1.4h-2.7v10.8c0,1.2,0.5,1.6,1.6,1.6c0.3,0,0.7-0.1,1-0.2v1.4
			c-0.2,0.1-0.6,0.2-1.2,0.2c-2.3,0-3.2-0.6-3.2-2.6V269.7z"/>
		<path class="st0" d="M258.7,268.2h1.8l3.4,13.1h0.1l3-13.1h1.8l-4.4,16.3c-0.8,3-1.7,3.8-4,3.8c-0.5,0-0.8,0-1.1-0.1v-1.4
			c0.4,0,0.7,0.1,1.1,0.1c1.1,0,1.8-0.4,2.2-2l0.4-1.4L258.7,268.2z"/>
		<path class="st0" d="M281.8,267.9c3.3,0,5.2,2.6,5.2,7.9c0,5.3-1.9,7.9-5.2,7.9c-3.3,0-5.2-2.6-5.2-7.9
			C276.6,270.5,278.5,267.9,281.8,267.9z M281.8,282.2c1.9,0,3.4-1.6,3.4-6.5c0-4.8-1.5-6.4-3.4-6.4c-1.9,0-3.4,1.6-3.4,6.4
			C278.4,280.6,279.9,282.2,281.8,282.2z"/>
		<path class="st0" d="M290.1,269.7h-2.1v-1.4h2.1v-1.8c0-2.1,0.4-3.6,3.3-3.6c0.5,0,0.8,0,1.1,0.1v1.4c-0.3-0.1-0.5-0.1-0.8-0.1
			c-1.2,0-1.8,0.5-1.8,2.2v1.8h2.7v1.4h-2.7v13.7h-1.7V269.7z"/>
		<path class="st0" d="M303.1,263h1.8v10.6h0.1l7.8-10.6h1.9l-6.2,8.5l6.9,11.8h-1.9l-6.1-10.3l-2.4,3.2v7.1h-1.8V263z"/>
		<path class="st0" d="M326.1,278.3c-0.3,3.2-2,5.3-4.9,5.3c-3.2,0-5.1-2.2-5.1-7.9c0-5.2,1.9-7.9,5.2-7.9c3.4,0,4.9,2.3,4.9,7.3
			v0.6H318v0.7c0,4.3,1.5,5.7,3.2,5.7c1.8,0,2.9-1.3,3.2-3.9H326.1z M324.4,274.4c-0.1-3.7-1.1-5.1-3.2-5.1c-2.1,0-3.2,1.4-3.2,5.1
			H324.4z"/>
		<path class="st0" d="M328.9,268.2h1.5v2.1h0.1c0.8-1.7,2.3-2.4,3.9-2.4c2.3,0,3.9,1.2,3.9,4v11.4h-1.7v-10.9
			c0-2.1-0.9-3.1-2.6-3.1c-2,0-3.3,1.5-3.3,3.9v10.1h-1.7V268.2z"/>
		<path class="st0" d="M342.1,269.7h-2.1v-1.4h2.1v-4.2h1.7v4.2h2.7v1.4h-2.7v10.8c0,1.2,0.5,1.6,1.6,1.6c0.3,0,0.7-0.1,1.1-0.2v1.4
			c-0.2,0.1-0.6,0.2-1.2,0.2c-2.3,0-3.2-0.6-3.2-2.6V269.7z"/>
		<path class="st0" d="M348.4,268.2h1.7v10.6c0,2.4,0.8,3.4,2.6,3.4c1.9,0,3.3-1.5,3.3-3.9v-10.1h1.7v15.1h-1.5v-2.1h-0.1
			c-0.9,1.7-2.3,2.4-3.9,2.4c-2.3,0-3.9-1.2-3.9-4V268.2z"/>
		<path class="st0" d="M370,278.3c-0.3,3.2-2,5.3-4.8,5.3c-3.2,0-5.1-2.2-5.1-7.9c0-5.2,1.9-7.9,5.2-7.9c2.8,0,4.5,1.7,4.7,4.8h-1.7
			c-0.2-2.4-1.1-3.4-3-3.4c-1.9,0-3.4,1.1-3.4,6.5c0,5.7,1.6,6.4,3.2,6.4c1.7,0,2.8-1.3,3.1-3.9H370z"/>
		<path class="st0" d="M372.4,263h1.7v12.7h0.1l5.8-7.5h2.1l-4.5,5.6l5.4,9.5h-2.1l-4.5-7.9l-2.2,2.7v5.3h-1.7V263z"/>
		<path class="st0" d="M382.6,268.2h1.8l3.4,13.1h0.1l3-13.1h1.8l-4.4,16.3c-0.8,3-1.7,3.8-4,3.8c-0.5,0-0.8,0-1.1-0.1v-1.4
			c0.4,0,0.7,0.1,1.1,0.1c1.1,0,1.8-0.4,2.2-2l0.4-1.4L382.6,268.2z"/>
	</g>
	<g>
		<path class="st0" d="M174.5,291h6.5c7.9,0,9.8,4.7,9.8,13.5c0,8.8-1.9,13.5-9.8,13.5h-6.5V291z M176.9,316h3.9
			c5.3,0,7.5-2.7,7.5-11.4c0-8.9-2.2-11.5-7.5-11.5h-3.9V316z"/>
		<path class="st0" d="M194.5,303.9c0-4.1,2-6.4,6.2-6.4c4.2,0,5.7,2.2,5.7,5.4v11.9c0,1.1,0.4,1.7,1.2,1.7h0.6v1.7
			c-0.4,0.2-0.8,0.2-1.1,0.2c-1.8,0-2.9-0.4-2.9-2.5v-0.7h-0.1c-0.9,2.7-3,3.4-5.2,3.4c-3.5,0-5.1-2.2-5.1-5.7
			c0-2.7,1.2-4.8,4.1-5.6l4.3-1.2c1.6-0.5,1.9-0.8,1.9-3.2c0-2.6-1.4-3.5-3.5-3.5c-2.7,0-3.9,1.6-3.9,4.5H194.5z M204.2,306.7
			L204.2,306.7c-0.3,0.7-1.6,1.1-2.5,1.3l-1.9,0.5c-2.3,0.6-3.5,1.8-3.5,4.2c0,2.4,1.2,3.9,3.2,3.9c2.8,0,4.7-2.1,4.7-5.7V306.7z"/>
		<path class="st0" d="M211.1,297.9h2v2.8h0.1c1.1-2.2,3.1-3.3,5.2-3.3c3.1,0,5.2,1.6,5.2,5.4v15.2h-2.3v-14.6
			c0-2.8-1.1-4.1-3.5-4.1c-2.7,0-4.4,2-4.4,5.2v13.5h-2.3V297.9z"/>
		<path class="st0" d="M240,311.4c-0.3,4.3-2.7,7.1-6.4,7.1c-4.2,0-6.8-3-6.8-10.5c0-7,2.5-10.5,6.9-10.5c3.8,0,6,2.3,6.2,6.4h-2.3
			c-0.3-3.1-1.5-4.5-3.9-4.5c-2.5,0-4.5,1.5-4.5,8.6c0,7.6,2.2,8.6,4.3,8.6c2.3,0,3.8-1.7,4.2-5.2H240z"/>
		<path class="st0" d="M255.8,311.4c-0.3,4.3-2.7,7.1-6.5,7.1c-4.2,0-6.8-3-6.8-10.5c0-7,2.5-10.5,6.9-10.5c4.5,0,6.5,3.1,6.5,9.8
			v0.8h-11v1c0,5.8,2.1,7.6,4.3,7.6c2.4,0,3.9-1.7,4.2-5.2H255.8z M253.5,306.2c-0.1-5-1.5-6.8-4.3-6.8c-2.8,0-4.2,1.8-4.3,6.8
			H253.5z"/>
		<path class="st0" d="M268.8,291h4.2l6.5,24h0.1l6.5-24h4v27.1h-2.4v-24.8h-0.1l-7,24.8h-2.3l-7-24.8h-0.1v24.8h-2.4V291z"/>
		<path class="st0" d="M294.2,303.9c0-4.1,2-6.4,6.2-6.4c4.2,0,5.7,2.2,5.7,5.4v11.9c0,1.1,0.4,1.7,1.2,1.7h0.6v1.7
			c-0.4,0.2-0.8,0.2-1.1,0.2c-1.8,0-2.9-0.4-2.9-2.5v-0.7h-0.1c-0.9,2.7-3,3.4-5.2,3.4c-3.5,0-5.1-2.2-5.1-5.7
			c0-2.7,1.2-4.8,4.1-5.6l4.3-1.2c1.6-0.5,1.9-0.8,1.9-3.2c0-2.6-1.4-3.5-3.5-3.5c-2.7,0-3.9,1.6-3.9,4.5H294.2z M303.9,306.7
			L303.9,306.7c-0.3,0.7-1.6,1.1-2.5,1.3l-1.9,0.5c-2.3,0.6-3.5,1.8-3.5,4.2c0,2.4,1.2,3.9,3.2,3.9c2.8,0,4.7-2.1,4.7-5.7V306.7z"/>
		<path class="st0" d="M310.8,297.9h2.3v3.2h0.1c0.9-2.2,2.7-3.6,5.1-3.6c0.3,0,0.5,0,0.8,0.1v2.3c-0.4-0.1-0.8-0.1-1.1-0.1
			c-2.5,0-4.9,1.8-4.9,5.7v12.6h-2.3V297.9z"/>
		<path class="st0" d="M320.9,303.9c0-4.1,2-6.4,6.2-6.4c4.2,0,5.7,2.2,5.7,5.4v11.9c0,1.1,0.4,1.7,1.2,1.7h0.6v1.7
			c-0.4,0.2-0.8,0.2-1.1,0.2c-1.8,0-2.9-0.4-2.9-2.5v-0.7h-0.1c-0.9,2.7-3,3.4-5.2,3.4c-3.5,0-5.1-2.2-5.1-5.7
			c0-2.7,1.2-4.8,4.1-5.6l4.3-1.2c1.6-0.5,1.9-0.8,1.9-3.2c0-2.6-1.4-3.5-3.5-3.5c-2.7,0-3.9,1.6-3.9,4.5H320.9z M330.6,306.7
			L330.6,306.7c-0.3,0.7-1.6,1.1-2.5,1.3l-1.9,0.5c-2.3,0.6-3.5,1.8-3.5,4.2c0,2.4,1.2,3.9,3.2,3.9c2.8,0,4.7-2.1,4.7-5.7V306.7z"/>
		<path class="st0" d="M338.5,299.8h-2.8v-1.9h2.8v-5.6h2.3v5.6h3.6v1.9h-3.6v14.5c0,1.6,0.7,2.1,2.2,2.1c0.5,0,0.9-0.1,1.4-0.2v1.9
			c-0.3,0.2-0.8,0.2-1.6,0.2c-3.1,0-4.2-0.8-4.2-3.5V299.8z"/>
		<path class="st0" d="M346.8,291h2.3v9.7h0.1c0.6-2,2.5-3.3,4.9-3.3c3.1,0,5.2,1.6,5.2,5.4v15.2H357v-14.6c0-2.8-1.1-4.1-3.5-4.1
			c-2.7,0-4.4,2-4.4,5.2v13.5h-2.3V291z"/>
		<path class="st0" d="M369.5,297.5c4.4,0,6.9,3.5,6.9,10.5c0,7-2.5,10.5-6.9,10.5c-4.4,0-6.9-3.5-6.9-10.5
			C362.6,301,365.1,297.5,369.5,297.5z M369.5,316.6c2.5,0,4.5-2.2,4.5-8.6c0-6.4-2-8.6-4.5-8.6c-2.5,0-4.5,2.2-4.5,8.6
			C365,314.4,367,316.6,369.5,316.6z"/>
		<path class="st0" d="M379.8,297.9h2v2.8h0.1c1.1-2.2,3.1-3.3,5.2-3.3c3.1,0,5.2,1.6,5.2,5.4v15.2H390v-14.6c0-2.8-1.1-4.1-3.5-4.1
			c-2.7,0-4.4,2-4.4,5.2v13.5h-2.3V297.9z"/>
	</g>
	<path class="st0" d="M227.9,215c0-15.4-13.4-24.3-31.4-26.4c15.5-2,27.1-9.7,27.1-23.1c0-15.6-13-23.9-32.5-23.9c-1,0-2,0-3,0.1
		h-41.6v2.8c0,0,3.9,0,8,0c4.1,0,4.7,1.9,4.7,5.5c0,0.5,0,2.4,0,5.4c0,17.9,0,78,0,78.5c0,3.6-0.6,5.5-4.7,5.5c-4.1,0-8,0-8,0v2.8
		h46.3v0C213.9,241.7,227.9,232.4,227.9,215z M202.6,166c0,15.1-3.5,21.6-22.7,21.9c0-12.8,0-25.5,0-32.5c0-2.9,0-4.9,0-5.4
		c0-3.6,0.6-5.5,4.8-5.5c2.4,0,4.8,0,6.3,0C199.3,146.6,202.6,152.7,202.6,166z M188.5,239.4c-1.2,0-2.5,0-3.9,0
		c-4.1,0-4.8-1.9-4.8-5.5c0-0.5,0-2.4,0-5.4c0,0,0-19.5,0-39.1c0.5,0,1.1,0,1.6,0.1c19.1,1.2,23.9,7.3,23.9,24.9
		C205.3,230.9,200.2,237.6,188.5,239.4z"/>
	<path class="st0" d="M262.7,238c-3.8,0-4.4-1.8-4.4-5.1c0-3.3,0-92.7,0-92.7h-1.6c0,0-9.4,4.4-27.6,4.4v3.4c0,0,5.2,0,7,0
		c3.2,0,3,2.4,3,5.5c0,2.2,0,76.1,0,79.4c0,3.3-0.6,5.1-4.4,5.1c-3.8,0-5,0-5,0v2.6h38.2V238C267.8,238,266.5,238,262.7,238z"/>
	<path class="st0" d="M255.8,119.7c0-2.7,0-40.2,0-40.2c0-9.6-7.8-17.4-17.4-17.4h-0.8c-8.1,0-15.2,3.5-19.7,8.9v-9.2h-1.5
		c0,0-9,6.2-26.4,6.2v3.3c0,0,4.9,0,6.7,0c3.1,0,2.9,2.3,2.9,5.3c0,1.4,0,40.4,0,43.1c0,2.7-0.6,4.2-4.2,4.2c-2.7,0-3.2,0-3.2,0v2.2
		H226v-2.2c0,0-0.3,0-3.9,0c-3.6,0-4.2-1.5-4.2-4.2c0-2.7,0-44.4,0-44.4c1.3-3.5,5.8-7.2,9.7-7.2c4.7,0,8.4,3.2,8.4,7.2
		c0,0,0,41.7,0,44.4c0,2.7-0.6,4.2-4.5,4.2c-2.1,0-2.8,0-3,0v2.2h34.8v-2.2c-0.2,0-0.9,0-3.1,0C256.5,123.8,255.8,122.4,255.8,119.7
		z"/>
	<path class="st0" d="M335.3,234.3c-3.1,0-2.9-2.3-2.9-5.3c0-1.5,0-3.9,0-5.9h0c0,0,0-35.8,0-38.5c0-2.7,0.6-4.2,4.2-4.2
		c2.7,0,3.2,0,3.2,0v-2.2h-32.1v2.2c0.3,0,1,0,2,0c3.6,0,4.2,1.5,4.2,4.2c0,2.7,0,38.5,0,38.5l0,0v5.9c-1.3,3.5-5.8,7.2-9.8,7.2
		c-4.7,0-8.4-3.2-8.4-7.2c0,0,0-41.7,0-44.4c0-2.7,0.6-4.2,4.5-4.2c0.5,0,1,0,1.3,0v-2.2h-33.1v2.2c0.2,0,0.9,0,3.1,0
		c3.9,0,4.5,1.5,4.5,4.2c0,2.7,0,40.2,0,40.2c0,9.6,7.8,17.4,17.4,17.4h0.8c8.1,0,15.2-3.5,19.7-8.9v8.7h1.5c0,0,11.7-4.4,29.1-4.4
		v-3.3C344.7,234.3,337.1,234.3,335.3,234.3z"/>
	<path class="st0" d="M318.2,112.2c-3.6,6.2-10,10.3-18.3,10.3c-10.3,0-14.8-9.7-14.8-25.1l0-7c0-20.5,4.7-26.5,11-26.5
		c5.4,0,6.4,3.8,6.4,8.5v12.8h17.7c-0.5-15.6-10.1-23.4-25.6-23.4c-15.9,0-31.1,10-31.1,33.6c0,22.2,15.2,32.6,31.1,32.6h0.2
		c11.8,0,21.1-6.1,25-14.9L318.2,112.2z"/>
	<path class="st0" d="M381.7,107.7c-2.8,8.6-10.5,14.8-19.6,14.8h-0.7c-8.2,0-14.8-7.8-14.8-17.4V86.3h35.2l0-1.2
		c-0.5-15.6-10.1-23.4-25.6-23.4c-12.7,0-31.2,8.9-31.2,33.6c0,19.3,15.3,32.6,31.3,32.6h0.2c13.7,0,23.9-8.2,26.5-19.3L381.7,107.7
		z M356.5,63.8c5.4,0,7.5,3.8,7.5,8.5v11h-17.4v-1.6C346.6,67.1,352.2,63.8,356.5,63.8z"/>
	<path class="st0" d="M402.8,222.6c-2.8,8.6-10.5,14.8-19.7,14.8h-0.7c-8.2,0-14.8-7.8-14.8-17.4v-18.8h35.1l0-1.2
		c-0.5-15.6-10.1-23.4-25.6-23.4c-12.7,0-31.2,8.9-31.2,33.6c0,19.3,15.4,32.6,31.3,32.6h0.2c13.7,0,23.9-8.2,26.5-19.3L402.8,222.6
		z M377.6,178.8c5.4,0,7.5,3.8,7.5,8.5v11h-17.4v-1.6C367.7,182,373.3,178.8,377.6,178.8z"/>
	<path class="st0" d="M190.2,116.9c0,0-3.6,4.9-7.8,4.6c-3-0.2-3.5-4.1-3.5-8.2c0-4.1,0-27.8,0-32.7c0-12.1-5-17.9-20-19.7
		c-13.5-1.6-26.5,4.9-26.5,18.3c0,4.9,3.5,8.1,8.2,8.1c4.7,0,8-2.6,8-7.6c0-4.8-4-7.4-9.5-6.9l-0.1-0.2c0,0,3.1-8.7,11.5-8.7
		c10.1,0,10.8,6.6,10.8,9.6c0,1,0,9.4,0,18.5c-4.6,0-16.9,0.9-25.2,8.2c-10.4,9.2-6.6,26.7,8.4,26.7c7.8,0,13.4-5.1,17-10.1
		c0.8,4.9,4.5,10.2,11.1,10.2c7.6,0,12.6-1.3,18.9-8.7C190.5,117,190.2,116.9,190.2,116.9z M154.2,119.5c-4.6,0-7.1-4.4-7.1-9.8
		c0-5,1.4-12,14.4-15.6c0,8.1,0,16.2,0,19.7C159.6,116.3,156.8,119.5,154.2,119.5z"/>
	<g>
		<path class="st1" d="M122.8,91.9c-0.1-0.3-0.2-0.5-0.2-0.5S122.6,91.6,122.8,91.9z"/>
		<path class="st1" d="M118.4,125.5c-2.5,5.7-8.9,18.3-17.1,34.2c5.4,12.2,11.5,25.9,17.8,39.8c3.4-6.7,18.5-37.2,18.5-54.2
			c0-19.2-5.7-31.9-8.4-38.7c-2.3-5.8-5.5-12.7-6.4-14.6C123.8,94.2,127.3,105.1,118.4,125.5z"/>
		<path class="st1" d="M77.9,204.2C56,245.5,33.8,287,33.8,287l12.9,45.7l49-90.1L77.9,204.2z"/>
	</g>
	<path class="st1" d="M80.1,87.4c0,0-6.7,10.5,2,34.2c8.7,23.7,74.2,166.5,74.2,166.5l-15.7,44.8L77.4,196.8
		c0,0-16.9-37.5-15.7-56.7c1.2-19.2,7.7-31.5,10.8-38.1C75.7,95.5,80.1,87.4,80.1,87.4z"/>
	<path class="st1" d="M100,107.9c7.3,0,14,2.6,19.4,7c1.4-4.7,2.1-9,2.2-13c0.1-5.1-0.9-8-1.3-8.9c-0.1-0.3-0.2-0.4-0.2-0.4l2.1-1.1
		c-5.3-8-13.3-13.2-22.2-13.2c-5.5,0-10.6,1.9-14.9,5.2c-0.8,1.3-4.5,7.4-4.7,14.3c-0.1,4.7,0.5,9.9,2,15.6
		C87.5,110,93.6,107.9,100,107.9z"/>
	<path class="st0" d="M61,126.3c0.6-2.6,1.2-5.2,2-7.8c-0.9-1-1.2-2-1.4-2.7c0-0.7,0-1.5,0-2.4c0,0,0-57,0-74c0-0.9,0-1.7,0-2.4
		c0.3-1.7,2.1-6,11.8-6c16.5,0,27.3,12.8,27.3,36c0,0.3,0,0.7,0,1c0,11,0,16.7,0,16.7c0,0.3,0,0.7,0,1c0,17.7-6.2,29.3-16.5,33.8
		c0.1,0.4,0.3,0.7,0.4,1.1c0.4,1.1,1,2.6,1.7,4.3c18.6-3.7,38.8-16.1,38.8-44.9c0-1.3,0-2.5-0.1-3.7c0-1.2,0.1-2.4,0.1-3.7
		c0-35.2-26.6-46.2-43.7-46.2l-7,0h-1.1H52.1H28.1v2.8c0,0,3.9,0,8,0c4.1,0,4.7,1.9,4.7,5.5c0,0.5,0,2.1,0,4.5c0,16.9,0,74,0,74
		c0,2.5,0,4.1,0,4.6c0,3.6-0.6,5.5-4.7,5.5c-4.1,0-8,0-8,0v2.8h24.2l-0.1,0C52.1,126.3,56.3,126.3,61,126.3z"/>
</g>
</svg>
