<?xml version="1.0" encoding="UTF-8" standalone="no"?>
<!-- Generator: Adobe Illustrator 21.1.0, SVG Export Plug-In . SVG Version: 6.00 Build 0)  -->

<svg
   version="1.1"
   id="Layer_1"
   x="0px"
   y="0px"
   viewBox="0 0 288 288"
   style="enable-background:new 0 0 288 288;"
   xml:space="preserve"
   sodipodi:docname="DB_Monogram_Logo.svg"
   inkscape:version="1.2 (dc2aedaf03, 2022-05-15)"
   xmlns:inkscape="http://www.inkscape.org/namespaces/inkscape"
   xmlns:sodipodi="http://sodipodi.sourceforge.net/DTD/sodipodi-0.dtd"
   xmlns="http://www.w3.org/2000/svg"
   xmlns:svg="http://www.w3.org/2000/svg"><defs
   id="defs117" /><sodipodi:namedview
   id="namedview115"
   pagecolor="#ffffff"
   bordercolor="#000000"
   borderopacity="0.25"
   inkscape:showpageshadow="2"
   inkscape:pageopacity="0.0"
   inkscape:pagecheckerboard="0"
   inkscape:deskcolor="#d1d1d1"
   showgrid="false"
   inkscape:zoom="4"
   inkscape:cx="124.5"
   inkscape:cy="107.375"
   inkscape:window-width="3840"
   inkscape:window-height="2056"
   inkscape:window-x="1920"
   inkscape:window-y="0"
   inkscape:window-maximized="1"
   inkscape:current-layer="Layer_1" />
<style
   type="text/css"
   id="style2">
	.st0{fill:#0033A0;}
	.st1{fill:#FFC627;}
</style>

<path
   class="st0"
   d="m 236.95,210.51172 c 0,-16.4 -14.3,-25.8 -33.4,-28.1 16.5,-2.1 28.8,-10.3 28.8,-24.6 0,-16.6 -13.8,-25.4 -34.6,-25.4 -1.1,0 -2.1,0 -3.2,0.1 h -44.3 v 3 c 0,0 4.1,0 8.5,0 4.4,0 5.1,2 5.1,5.8 0,0.5 0,2.6 0,5.7 0,19 0,82.9 0,83.5 0,3.8 -0.7,5.8 -5.1,5.8 -4.4,0 -8.5,0 -8.5,0 v 3 h 49.2 v 0 c 22.6,-0.4 37.5,-10.4 37.5,-28.8 z m -26.9,-52.2 c 0,16.1 -3.8,22.9 -24.1,23.3 0,-13.7 0,-27.1 0,-34.5 0,-3.1 0,-5.2 0,-5.7 0,-3.8 0.7,-5.8 5,-5.8 2.6,0 5.1,0 6.7,0 9,2.1 12.4,8.5 12.4,22.7 z m -14.9,78.1 c -1.3,0 -2.7,0 -4.2,0 -4.4,0 -5,-2 -5,-5.8 0,-0.5 0,-2.6 0,-5.7 0,0 0,-20.7 0,-41.5 0.6,0 1.1,0.1 1.7,0.1 20.3,1.3 25.4,7.7 25.4,26.5 -0.1,17.3 -5.6,24.5 -17.9,26.4 z"
   id="path72" />
<g
   id="g82"
   transform="translate(-2.85,28.511715)">
	<path
   class="st1"
   d="m 113.8,25.6 c -0.1,-0.2 -0.2,-0.4 -0.2,-0.4 0,0 0.1,0.2 0.2,0.4 z"
   id="path74" />
	<path
   class="st1"
   d="m 111.8,51.6 c -1.7,4.5 -6.1,14.5 -11.7,27 4.7,9.2 10,19.5 15.4,29.9 2.4,-5.3 12.7,-29.5 12,-42.6 -0.8,-14.8 -5.7,-24.4 -8.1,-29.5 -2,-4.4 -4.8,-9.6 -5.5,-11 0.7,1.9 4,10.2 -2.1,26.2 z"
   id="path76" />
	<path
   class="st1"
   d="m 83.9,114.1 c -15.1,32.8 -30.5,65.6 -30.5,65.6 l 11.9,34.7 34,-71.5 z"
   id="path78" />
	<path
   class="st1"
   d="m 83.9,114.1 c -15.1,32.8 -30.5,65.6 -30.5,65.6 l 11.9,34.7 34,-71.5 z"
   id="path80" />
</g>
<path
   class="st1"
   d="m 77.85,52.41172 c 0,0 -4.7,8.4 3,26.3 7.7,17.9 64.3,125.2 64.3,125.2 l -10.3,35.2 -54.5,-102.3 c 0,0 -14.6,-28.2 -14.5,-43 0.1,-14.8 4.6,-24.6 6.7,-29.8 2.2,-5.2 5.3,-11.6 5.3,-11.6 z"
   id="path84" />
<path
   class="st1"
   d="m 94.05,67.41172 c 5.6,-0.3 10.9,1.4 15.3,4.5 0.9,-3.6 1.3,-7 1.1,-10.1 -0.1,-3.9 -1.5,-7.1 -1.5,-7.1 0,0 -2.5,-5.5 -5,-7.1 -3.4,-2.1 -7.2,-3.200005 -11.1,-3.000005 -4.2,0.2 -8.1,1.900005 -11.3,4.700005 -0.6,1 -3.1,5.9 -3,11.2 0.1,3.6 0.8,7.6 2.2,12 3.8,-3 8.3,-4.8 13.3,-5.1 z"
   id="path86" />
<g
   id="g92"
   transform="translate(-2.85,28.511715)">
	<path
   class="st0"
   d="m 86.4,119.2 c 0,1.1 0,1.7 0,1.7 0,2.6 0,4.3 0,4.8 0,3.8 -0.7,5.8 -5,5.8 -4.4,0 -8.5,0 -8.5,0 v 3 h 21.7 z"
   id="path88" />
	<path
   class="st0"
   d="M 176,77.7 C 176,40.3 147.7,28.6 129.6,28.6 H 122.1 121 98.5 72.9 v 3 c 0,0 4.1,0 8.5,0 4.4,0 5,2 5,5.8 0,0.5 0,2.2 0,4.8 0,2.2 0,5.1 0,8.4 2.2,4.9 14.7,30.2 22.2,44.7 0,-4.5 0,-50.2 0,-53 0,-1 0,-1.8 0,-2.5 0.4,-1.8 2.3,-6.4 12.5,-6.4 17.5,0 29,13.6 29,38.3 0,0.4 0,0.7 0,1.1 0,11.7 0,17.8 0,17.8 0,0.4 0,0.7 0,1.1 0,17.4 -5.7,29.3 -15.2,34.8 v 0 c -2.5,1.4 -5.5,2.4 -8.6,2.9 0.9,1.8 1.8,3.5 2.7,5.2 h 0.5 c 2.6,0 13.6,-2.7 20.4,-6.2 14.2,-6.9 26.1,-20 26.1,-42.7 0,-1.4 0,-2.7 -0.1,-3.9 0.1,-1.4 0.1,-2.7 0.1,-4.1 z"
   id="path90" />
</g>

</svg>
